<?xml version="1.0" encoding="utf-8"?>
<!-- Generator: Adobe Illustrator 16.0.3, SVG Export Plug-In . SVG Version: 6.00 Build 0)  -->
<!DOCTYPE svg PUBLIC "-//W3C//DTD SVG 1.1//EN" "http://www.w3.org/Graphics/SVG/1.1/DTD/svg11.dtd">
<svg version="1.1" id="Layer_1" xmlns="http://www.w3.org/2000/svg" xmlns:xlink="http://www.w3.org/1999/xlink" x="0px" y="0px"
	 width="67.125px" height="53.875px" viewBox="0 0 67.125 53.875" enable-background="new 0 0 67.125 53.875" xml:space="preserve">
<path fill="#F5F5F5" d="M56.555,36.875h5.153c0.409,0,0.603-0.156,0.915-0.469c0.312-0.313,0.252-0.723,0.252-1.131v-8.9v-16v-7.9
	c0-0.41,0.061-0.819-0.252-1.131c-0.312-0.312-0.506-0.469-0.915-0.469H28.907c-0.409,0-1.035,0.156-1.347,0.469
	c-0.312,0.313-0.685,0.722-0.685,1.131v7.9v6.5H2.907c-0.409,0-1.035,0.156-1.347,0.469c-0.312,0.313-0.685,0.722-0.685,1.131v7.9
	v16v8.9c0,0.408,0.373,0.817,0.685,1.131c0.312,0.312,0.938,0.469,1.347,0.469h32.801c0.409,0,0.603-0.156,0.915-0.469
	c0.312-0.313,0.252-0.723,0.252-1.131v-8.9v-5.5h6.941c0.258,0,0.521,0.062,0.764,0.193c0.243,0.133,0.438,0.318,0.579,0.535
	l9.409,14.514c0.141,0.217,0.334,0.402,0.576,0.535c0.242,0.131,0.504,0.192,0.763,0.193l9.198,0.023
	c0.357,0.001,0.705-0.189,0.89-0.527c0.185-0.337,0.153-0.732-0.041-1.033L56.555,36.875z M26.875,36.375v6.5h-16v-16h16V36.375z
	 M36.875,26.875v-10.5v-5.5h16v16H36.875z"/>
</svg>
