<?xml version="1.0" encoding="utf-8"?>
<!-- Generator: Adobe Illustrator 16.0.3, SVG Export Plug-In . SVG Version: 6.00 Build 0)  -->
<!DOCTYPE svg PUBLIC "-//W3C//DTD SVG 1.1//EN" "http://www.w3.org/Graphics/SVG/1.1/DTD/svg11.dtd">
<svg version="1.1" id="Layer_1" xmlns="http://www.w3.org/2000/svg" xmlns:xlink="http://www.w3.org/1999/xlink" x="0px" y="0px"
	 width="468px" height="420.75px" viewBox="0 0 468 420.75" enable-background="new 0 0 468 420.75" xml:space="preserve">
<path fill="none" stroke="#7774CF" stroke-width="4" stroke-linecap="round" stroke-linejoin="round" stroke-miterlimit="10" d="
	M305.455,366.274c0,0-8.796-12.989-3.323-21.011l-130.499,0.455c5.527,7.98-3.178,21.031-3.178,21.031l-9.178,14.975
	c8.653-0.263,18.613,4.167,24.207,14.127c13.159-11.411,31.828-18.751,53.507-19.037c21.448,0.137,40,7.188,53.213,18.304
	c5.919-9.867,16.222-14.013,24.911-13.326L305.455,366.274z"/>
<line fill="none" stroke="#7774CF" stroke-width="5" stroke-linecap="round" stroke-linejoin="round" stroke-miterlimit="10" x1="305" y1="332.5" x2="168" y2="332.5"/>
<line fill="none" stroke="#7774CF" stroke-width="3" stroke-linecap="round" stroke-linejoin="round" stroke-miterlimit="10" x1="236" y1="254.5" x2="206" y2="254.5"/>
<line fill="none" stroke="#7774CF" stroke-width="2" stroke-linecap="round" stroke-linejoin="round" stroke-miterlimit="10" x1="177" y1="327" x2="177" y2="350"/>
<line fill="none" stroke="#7774CF" stroke-width="2" stroke-linecap="round" stroke-linejoin="round" stroke-miterlimit="10" x1="172" y1="333" x2="172" y2="345"/>
<line fill="none" stroke="#7774CF" stroke-width="2" stroke-linecap="round" stroke-linejoin="round" stroke-miterlimit="10" x1="232" y1="243" x2="232" y2="258"/>
<line fill="none" stroke="#7774CF" stroke-width="2" stroke-linecap="round" stroke-linejoin="round" stroke-miterlimit="10" x1="236" y1="243" x2="236" y2="258"/>
<line fill="none" stroke="#7774CF" stroke-width="2" stroke-linecap="round" stroke-linejoin="round" stroke-miterlimit="10" x1="240" y1="243" x2="240" y2="258"/>
<line fill="none" stroke="#7774CF" stroke-width="2" stroke-linecap="round" stroke-linejoin="round" stroke-miterlimit="10" x1="244" y1="243" x2="244" y2="258"/>
<line fill="none" stroke="#7774CF" stroke-width="2" stroke-linecap="round" stroke-linejoin="round" stroke-miterlimit="10" x1="248" y1="243" x2="248" y2="258"/>
<line fill="none" stroke="#7774CF" stroke-width="2" stroke-linecap="round" stroke-linejoin="round" stroke-miterlimit="10" x1="252" y1="243" x2="252" y2="258"/>
<line fill="none" stroke="#7774CF" stroke-width="2" stroke-linecap="round" stroke-linejoin="round" stroke-miterlimit="10" x1="256" y1="243" x2="256" y2="258"/>
<line fill="none" stroke="#7774CF" stroke-width="2" stroke-linecap="round" stroke-linejoin="round" stroke-miterlimit="10" x1="260" y1="243" x2="260" y2="258"/>
<line fill="none" stroke="#7774CF" stroke-width="2" stroke-linecap="round" stroke-linejoin="round" stroke-miterlimit="10" x1="264" y1="243" x2="264" y2="258"/>
<line fill="none" stroke="#7774CF" stroke-width="2" stroke-linecap="round" stroke-linejoin="round" stroke-miterlimit="10" x1="228" y1="243" x2="228" y2="258"/>
<line fill="none" stroke="#7774CF" stroke-width="2" stroke-linecap="round" stroke-linejoin="round" stroke-miterlimit="10" x1="224" y1="243" x2="224" y2="258"/>
<line fill="none" stroke="#7774CF" stroke-width="2" stroke-linecap="round" stroke-linejoin="round" stroke-miterlimit="10" x1="220" y1="243" x2="220" y2="258"/>
<line fill="none" stroke="#7774CF" stroke-width="2" stroke-linecap="round" stroke-linejoin="round" stroke-miterlimit="10" x1="216" y1="243" x2="216" y2="258"/>
<line fill="none" stroke="#7774CF" stroke-width="2" stroke-linecap="round" stroke-linejoin="round" stroke-miterlimit="10" x1="212" y1="243" x2="212" y2="258"/>
<line fill="none" stroke="#7774CF" stroke-width="2" stroke-linecap="round" stroke-linejoin="round" stroke-miterlimit="10" x1="208" y1="243" x2="208" y2="258"/>
<line fill="none" stroke="#7774CF" stroke-width="2" stroke-linecap="round" stroke-linejoin="round" stroke-miterlimit="10" x1="182" y1="327" x2="182" y2="350"/>
<line fill="none" stroke="#7774CF" stroke-width="2" stroke-linecap="round" stroke-linejoin="round" stroke-miterlimit="10" x1="187" y1="327" x2="187" y2="350"/>
<line fill="none" stroke="#7774CF" stroke-width="2" stroke-linecap="round" stroke-linejoin="round" stroke-miterlimit="10" x1="192" y1="327" x2="192" y2="350"/>
<line fill="none" stroke="#7774CF" stroke-width="2" stroke-linecap="round" stroke-linejoin="round" stroke-miterlimit="10" x1="197" y1="327" x2="197" y2="350"/>
<line fill="none" stroke="#7774CF" stroke-width="2" stroke-linecap="round" stroke-linejoin="round" stroke-miterlimit="10" x1="202" y1="327" x2="202" y2="350"/>
<line fill="none" stroke="#7774CF" stroke-width="2" stroke-linecap="round" stroke-linejoin="round" stroke-miterlimit="10" x1="207" y1="327" x2="207" y2="350"/>
<line fill="none" stroke="#7774CF" stroke-width="2" stroke-linecap="round" stroke-linejoin="round" stroke-miterlimit="10" x1="212" y1="327" x2="212" y2="350"/>
<line fill="none" stroke="#7774CF" stroke-width="2" stroke-linecap="round" stroke-linejoin="round" stroke-miterlimit="10" x1="217" y1="327" x2="217" y2="350"/>
<line fill="none" stroke="#7774CF" stroke-width="2" stroke-linecap="round" stroke-linejoin="round" stroke-miterlimit="10" x1="222" y1="327" x2="222" y2="350"/>
<line fill="none" stroke="#7774CF" stroke-width="2" stroke-linecap="round" stroke-linejoin="round" stroke-miterlimit="10" x1="227" y1="327" x2="227" y2="350"/>
<line fill="none" stroke="#7774CF" stroke-width="2" stroke-linecap="round" stroke-linejoin="round" stroke-miterlimit="10" x1="232" y1="327" x2="232" y2="350"/>
<line fill="none" stroke="#7774CF" stroke-width="2" stroke-linecap="round" stroke-linejoin="round" stroke-miterlimit="10" x1="237" y1="327" x2="237" y2="350"/>
<line fill="none" stroke="#7774CF" stroke-width="2" stroke-linecap="round" stroke-linejoin="round" stroke-miterlimit="10" x1="242" y1="327" x2="242" y2="350"/>
<line fill="none" stroke="#7774CF" stroke-width="2" stroke-linecap="round" stroke-linejoin="round" stroke-miterlimit="10" x1="247" y1="327" x2="247" y2="350"/>
<line fill="none" stroke="#7774CF" stroke-width="2" stroke-linecap="round" stroke-linejoin="round" stroke-miterlimit="10" x1="252" y1="327" x2="252" y2="350"/>
<line fill="none" stroke="#7774CF" stroke-width="2" stroke-linecap="round" stroke-linejoin="round" stroke-miterlimit="10" x1="257" y1="327" x2="257" y2="350"/>
<line fill="none" stroke="#7774CF" stroke-width="2" stroke-linecap="round" stroke-linejoin="round" stroke-miterlimit="10" x1="262" y1="327" x2="262" y2="350"/>
<line fill="none" stroke="#7774CF" stroke-width="2" stroke-linecap="round" stroke-linejoin="round" stroke-miterlimit="10" x1="267" y1="327" x2="267" y2="350"/>
<line fill="none" stroke="#7774CF" stroke-width="2" stroke-linecap="round" stroke-linejoin="round" stroke-miterlimit="10" x1="272" y1="327" x2="272" y2="350"/>
<line fill="none" stroke="#7774CF" stroke-width="2" stroke-linecap="round" stroke-linejoin="round" stroke-miterlimit="10" x1="277" y1="327" x2="277" y2="350"/>
<line fill="none" stroke="#7774CF" stroke-width="2" stroke-linecap="round" stroke-linejoin="round" stroke-miterlimit="10" x1="282" y1="327" x2="282" y2="350"/>
<line fill="none" stroke="#7774CF" stroke-width="2" stroke-linecap="round" stroke-linejoin="round" stroke-miterlimit="10" x1="287" y1="327" x2="287" y2="350"/>
<line fill="none" stroke="#7774CF" stroke-width="2" stroke-linecap="round" stroke-linejoin="round" stroke-miterlimit="10" x1="292" y1="327" x2="292" y2="350"/>
<line fill="none" stroke="#7774CF" stroke-width="2" stroke-linecap="round" stroke-linejoin="round" stroke-miterlimit="10" x1="297" y1="327" x2="297" y2="350"/>
<line fill="none" stroke="#7774CF" stroke-width="2" stroke-linecap="round" stroke-linejoin="round" stroke-miterlimit="10" x1="302" y1="327" x2="302" y2="346"/>
<path fill="none" stroke="#7774CF" stroke-width="2" stroke-linecap="round" stroke-linejoin="round" stroke-miterlimit="10" d="
	M299,331"/>
<path fill="none" stroke="#7774CF" stroke-width="4" stroke-linecap="round" stroke-linejoin="round" stroke-miterlimit="10" d="
	M264.066,255.398l-55,0.189c-0.934,4.613-6.407,38.135-17.296,67.062l23.589-0.082c4.528-15.02,9.312-33.424,9.446-46.533
	l23.66-0.083c0.229,13.108,5.145,31.479,9.774,46.467l23.59-0.083C270.741,293.486,265.034,260.006,264.066,255.398z"/>
<path fill="none" stroke="#7774CF" stroke-width="4" stroke-linecap="round" stroke-linejoin="round" stroke-miterlimit="10" d="
	M226.439,78.529c-1.549,83.731-5.84,102.294-14.125,160.05l18.078-0.063c7.018-42.132,5.26-101.844,5.059-160.018L226.439,78.529z"
	/>
<line fill="none" stroke="#7774CF" stroke-width="3" stroke-linecap="round" stroke-linejoin="round" stroke-miterlimit="10" x1="223" y1="77.5" x2="248" y2="77.5"/>
<line fill="none" stroke="#7774CF" stroke-width="4" stroke-linecap="round" stroke-linejoin="round" stroke-miterlimit="10" x1="236" y1="46.864" x2="235.977" y2="30"/>
<line fill="none" stroke="#7774CF" stroke-width="2" stroke-miterlimit="10" x1="174" y1="354" x2="300" y2="354"/>
<line fill="none" stroke="#7774CF" stroke-width="2" stroke-miterlimit="10" x1="169" y1="364" x2="303" y2="364"/>
<line fill="none" stroke="#7774CF" stroke-miterlimit="10" x1="198" y1="303.5" x2="215.064" y2="322.5"/>
<path fill="none" stroke="#7774CF" stroke-miterlimit="10" d="M221,303.5"/>
<line fill="none" stroke="#7774CF" stroke-width="2" stroke-miterlimit="10" x1="224" y1="287" x2="201" y2="287"/>
<line fill="none" stroke="#7774CF" stroke-width="2" stroke-miterlimit="10" x1="214" y1="224" x2="233" y2="224"/>
<path fill="none" stroke="#7774CF" stroke-miterlimit="10" d="M227,108.5"/>
<path fill="none" stroke="#7774CF" stroke-miterlimit="10" d="M237,108.5"/>
<line fill="none" stroke="#7774CF" stroke-width="2" stroke-miterlimit="10" x1="205" y1="275" x2="226" y2="275"/>
<line fill="none" stroke="#7774CF" stroke-width="2" stroke-miterlimit="10" x1="207" y1="267" x2="237" y2="267"/>
<line fill="none" stroke="#7774CF" stroke-width="2" stroke-miterlimit="10" x1="207" y1="261" x2="237" y2="261"/>
<polyline fill="none" stroke="#7774CF" stroke-miterlimit="10" points="191.471,322.5 220.311,303.5 202.429,286.5 224.224,274.5 
	"/>
<path fill="none" stroke="#7774CF" stroke-miterlimit="10" d="M198,303.5"/>
<polyline fill="none" stroke="#7774CF" stroke-miterlimit="10" points="206,274.5 223.703,286.5 198,303.5 "/>
<line fill="none" stroke="#7774CF" stroke-miterlimit="10" x1="212.307" y1="238.5" x2="232" y2="223.5"/>
<path fill="none" stroke="#7774CF" stroke-miterlimit="10" d="M216,209.5"/>
<polyline fill="none" stroke="#7774CF" stroke-miterlimit="10" points="230.384,238.5 214.542,223.5 234,209.5 "/>
<line fill="none" stroke="#7774CF" stroke-miterlimit="10" x1="232.503" y1="223.5" x2="216.65" y2="209.5"/>
<path fill="none" stroke="#7774CF" stroke-miterlimit="10" d="M218,195.5"/>
<line fill="none" stroke="#7774CF" stroke-miterlimit="10" x1="217.375" y1="209.5" x2="235" y2="195.5"/>
<path fill="none" stroke="#7774CF" stroke-miterlimit="10" d="M220,181.5"/>
<polyline fill="none" stroke="#7774CF" stroke-miterlimit="10" points="234,209.5 218.703,195.5 235,181.5 "/>
<path fill="none" stroke="#7774CF" stroke-miterlimit="10" d="M222,169.5"/>
<polyline fill="none" stroke="#7774CF" stroke-miterlimit="10" points="235,195.5 220.592,181.5 235,169.5 "/>
<path fill="none" stroke="#7774CF" stroke-miterlimit="10" d="M223,156.5"/>
<polyline fill="none" stroke="#7774CF" stroke-miterlimit="10" points="235,181.5 222,169.5 235,156.5 "/>
<polyline fill="none" stroke="#7774CF" stroke-miterlimit="10" points="236,144.5 223.284,156.5 235,169.5 "/>
<line fill="none" stroke="#7774CF" stroke-miterlimit="10" x1="235.754" y1="156.5" x2="224" y2="144.5"/>
<line fill="none" stroke="#7774CF" stroke-miterlimit="10" x1="225" y1="133.5" x2="235.615" y2="144"/>
<line fill="none" stroke="#7774CF" stroke-miterlimit="10" x1="224" y1="144.5" x2="235" y2="133.5"/>
<line fill="none" stroke="#7774CF" stroke-miterlimit="10" x1="226" y1="124.5" x2="235" y2="133.5"/>
<line fill="none" stroke="#7774CF" stroke-miterlimit="10" x1="225.5" y1="133.5" x2="236" y2="124.5"/>
<line fill="none" stroke="#7774CF" stroke-miterlimit="10" x1="236" y1="124.5" x2="225.805" y2="116.5"/>
<path fill="none" stroke="#7774CF" stroke-miterlimit="10" d="M225,116.5"/>
<line fill="none" stroke="#7774CF" stroke-miterlimit="10" x1="225.805" y1="124" x2="235" y2="116.5"/>
<line fill="none" stroke="#7774CF" stroke-miterlimit="10" x1="235.643" y1="116.5" x2="226.124" y2="108.5"/>
<polyline fill="none" stroke="#7774CF" stroke-miterlimit="10" points="227,100.5 235.5,108.5 225.826,115.998 "/>
<line fill="none" stroke="#7774CF" stroke-miterlimit="10" x1="226.134" y1="108.249" x2="235" y2="100.5"/>
<line fill="none" stroke="#7774CF" stroke-miterlimit="10" x1="227" y1="100.5" x2="235" y2="95"/>
<line fill="none" stroke="#7774CF" stroke-miterlimit="10" x1="227" y1="94.5" x2="235" y2="100.5"/>
<polyline fill="none" stroke="#7774CF" stroke-miterlimit="10" points="227.5,94.5 235,89.5 227,89.5 235,94.5 "/>
<polyline fill="none" stroke="#7774CF" stroke-linecap="round" stroke-linejoin="round" stroke-miterlimit="10" points="227.5,89.5 
	235,85.5 227,85.5 235,89.5 "/>
<line fill="none" stroke="#7774CF" stroke-miterlimit="10" x1="175.5" y1="355" x2="175.5" y2="364"/>
<line fill="none" stroke="#7774CF" stroke-miterlimit="10" x1="181.5" y1="355" x2="181.5" y2="364"/>
<line fill="none" stroke="#7774CF" stroke-miterlimit="10" x1="187.5" y1="355" x2="187.5" y2="364"/>
<line fill="none" stroke="#7774CF" stroke-miterlimit="10" x1="193.5" y1="355" x2="193.5" y2="364"/>
<line fill="none" stroke="#7774CF" stroke-miterlimit="10" x1="199.5" y1="355" x2="199.5" y2="364"/>
<line fill="none" stroke="#7774CF" stroke-miterlimit="10" x1="205.5" y1="355" x2="205.5" y2="364"/>
<line fill="none" stroke="#7774CF" stroke-miterlimit="10" x1="211.5" y1="355" x2="211.5" y2="364"/>
<line fill="none" stroke="#7774CF" stroke-miterlimit="10" x1="217.5" y1="355" x2="217.5" y2="364"/>
<line fill="none" stroke="#7774CF" stroke-miterlimit="10" x1="223.5" y1="355" x2="223.5" y2="364"/>
<line fill="none" stroke="#7774CF" stroke-miterlimit="10" x1="229.5" y1="355" x2="229.5" y2="364"/>
<line fill="none" stroke="#7774CF" stroke-miterlimit="10" x1="236.5" y1="355" x2="236.5" y2="364"/>
<line fill="none" stroke="#7774CF" stroke-width="2" stroke-miterlimit="10" x1="197.25" y1="363.75" x2="188.92" y2="379.29"/>
<path fill="none" stroke="#7774CF" stroke-miterlimit="10" d="M193.5,370.482"/>
<path fill="none" stroke="#7774CF" stroke-miterlimit="10" d="M166.07,421"/>
<line fill="none" stroke="#7774CF" stroke-miterlimit="10" x1="172" y1="384.257" x2="193.5" y2="370.482"/>
<rect x="218.605" y="260.533" transform="matrix(1 -0.0034 0.0034 1 -0.8994 0.7624)" fill="none" stroke="#7774CF" stroke-miterlimit="10" width="8" height="6"/>
<circle fill="none" stroke="#7774CF" stroke-miterlimit="10" cx="210.555" cy="269.773" r="0.438"/>
<circle fill="none" stroke="#7774CF" stroke-miterlimit="10" cx="212.562" cy="271.766" r="0.438"/>
<circle fill="none" stroke="#7774CF" stroke-miterlimit="10" cx="214.555" cy="269.759" r="0.438"/>
<circle fill="none" stroke="#7774CF" stroke-miterlimit="10" cx="216.562" cy="271.752" r="0.438"/>
<circle fill="none" stroke="#7774CF" stroke-miterlimit="10" cx="218.555" cy="269.745" r="0.438"/>
<circle fill="none" stroke="#7774CF" stroke-miterlimit="10" cx="220.562" cy="271.738" r="0.438"/>
<circle fill="none" stroke="#7774CF" stroke-miterlimit="10" cx="222.555" cy="269.731" r="0.438"/>
<circle fill="none" stroke="#7774CF" stroke-miterlimit="10" cx="224.562" cy="271.725" r="0.438"/>
<circle fill="none" stroke="#7774CF" stroke-miterlimit="10" cx="226.555" cy="269.717" r="0.438"/>
<circle fill="none" stroke="#7774CF" stroke-miterlimit="10" cx="228.562" cy="271.71" r="0.438"/>
<circle fill="none" stroke="#7774CF" stroke-miterlimit="10" cx="230.555" cy="269.703" r="0.438"/>
<circle fill="none" stroke="#7774CF" stroke-miterlimit="10" cx="232.562" cy="271.696" r="0.438"/>
<circle fill="none" stroke="#7774CF" stroke-miterlimit="10" cx="234.555" cy="269.689" r="0.438"/>
<circle fill="none" stroke="#7774CF" stroke-miterlimit="10" cx="236.562" cy="271.683" r="0.438"/>
<circle fill="none" stroke="#7774CF" stroke-miterlimit="10" cx="238.555" cy="269.676" r="0.438"/>
<circle fill="none" stroke="#7774CF" stroke-miterlimit="10" cx="240.562" cy="271.668" r="0.438"/>
<circle fill="none" stroke="#7774CF" stroke-miterlimit="10" cx="242.555" cy="269.661" r="0.438"/>
<circle fill="none" stroke="#7774CF" stroke-miterlimit="10" cx="244.562" cy="271.654" r="0.438"/>
<circle fill="none" stroke="#7774CF" stroke-miterlimit="10" cx="246.555" cy="269.647" r="0.438"/>
<circle fill="none" stroke="#7774CF" stroke-miterlimit="10" cx="248.562" cy="271.641" r="0.438"/>
<circle fill="none" stroke="#7774CF" stroke-miterlimit="10" cx="250.555" cy="269.634" r="0.438"/>
<circle fill="none" stroke="#7774CF" stroke-miterlimit="10" cx="252.562" cy="271.626" r="0.437"/>
<circle fill="none" stroke="#7774CF" stroke-miterlimit="10" cx="254.555" cy="269.619" r="0.438"/>
<circle fill="none" stroke="#7774CF" stroke-miterlimit="10" cx="256.562" cy="271.612" r="0.438"/>
<circle fill="none" stroke="#7774CF" stroke-miterlimit="10" cx="258.555" cy="269.605" r="0.438"/>
<circle fill="none" stroke="#7774CF" stroke-miterlimit="10" cx="260.562" cy="271.599" r="0.438"/>
<circle fill="none" stroke="#7774CF" stroke-miterlimit="10" cx="262.555" cy="269.592" r="0.438"/>
<circle fill="none" stroke="#7774CF" stroke-miterlimit="10" cx="264.562" cy="271.585" r="0.438"/>
<circle fill="none" stroke="#7774CF" stroke-miterlimit="10" cx="208.562" cy="271.78" r="0.438"/>
<line fill="none" stroke="#7774CF" stroke-width="2" stroke-miterlimit="10" x1="221" y1="304" x2="198" y2="304"/>
<line fill="none" stroke="#7774CF" stroke-width="2" stroke-miterlimit="10" x1="234" y1="210" x2="216" y2="210"/>
<line fill="none" stroke="#7774CF" stroke-width="2" stroke-miterlimit="10" x1="235" y1="196" x2="218" y2="196"/>
<line fill="none" stroke="#7774CF" stroke-width="2" stroke-miterlimit="10" x1="235" y1="182" x2="220" y2="182"/>
<line fill="none" stroke="#7774CF" stroke-width="2" stroke-miterlimit="10" x1="235" y1="170" x2="222" y2="170"/>
<line fill="none" stroke="#7774CF" stroke-width="2" stroke-miterlimit="10" x1="235" y1="157" x2="223" y2="157"/>
<line fill="none" stroke="#7774CF" stroke-width="2" stroke-miterlimit="10" x1="224" y1="145" x2="236" y2="145"/>
<line fill="none" stroke="#7774CF" stroke-width="2" stroke-miterlimit="10" x1="235" y1="134" x2="225" y2="134"/>
<line fill="none" stroke="#7774CF" stroke-width="2" stroke-miterlimit="10" x1="236" y1="125" x2="226" y2="125"/>
<line fill="none" stroke="#7774CF" stroke-width="2" stroke-miterlimit="10" x1="235" y1="117" x2="225" y2="117"/>
<line fill="none" stroke="#7774CF" stroke-width="2" stroke-miterlimit="10" x1="237" y1="109" x2="227" y2="109"/>
<line fill="none" stroke="#7774CF" stroke-width="2" stroke-miterlimit="10" x1="235" y1="101" x2="227" y2="101"/>
<line fill="none" stroke="#7774CF" stroke-width="2" stroke-miterlimit="10" x1="235" y1="95" x2="227" y2="95"/>
<line fill="none" stroke="#7774CF" stroke-width="2" stroke-miterlimit="10" x1="167" y1="370.5" x2="193.5" y2="370.482"/>
<line fill="none" stroke="#7774CF" stroke-width="3" stroke-linecap="round" stroke-linejoin="round" stroke-miterlimit="10" x1="237" y1="254.5" x2="267" y2="254.5"/>
<path fill="none" stroke="#7774CF" stroke-width="2" stroke-linecap="round" stroke-linejoin="round" stroke-miterlimit="10" d="
	M174,331"/>
<path fill="none" stroke="#7774CF" stroke-width="4" stroke-linecap="round" stroke-linejoin="round" stroke-miterlimit="10" d="
	M235.451,78.498c0.201,58.174-1.139,117.896,6.174,159.979l18.077-0.062c-8.687-57.697-13.108-76.23-15.24-159.948L235.451,78.498z"
	/>
<line fill="none" stroke="#7774CF" stroke-miterlimit="10" x1="275" y1="303.5" x2="257.936" y2="322.5"/>
<path fill="none" stroke="#7774CF" stroke-miterlimit="10" d="M252,303.5"/>
<line fill="none" stroke="#7774CF" stroke-width="2" stroke-miterlimit="10" x1="249" y1="287" x2="272" y2="287"/>
<line fill="none" stroke="#7774CF" stroke-width="2" stroke-miterlimit="10" x1="259" y1="224" x2="240" y2="224"/>
<path fill="none" stroke="#7774CF" stroke-miterlimit="10" d="M246,108.5"/>
<path fill="none" stroke="#7774CF" stroke-miterlimit="10" d="M236,108.5"/>
<line fill="none" stroke="#7774CF" stroke-width="2" stroke-miterlimit="10" x1="268" y1="275" x2="247" y2="275"/>
<line fill="none" stroke="#7774CF" stroke-width="2" stroke-miterlimit="10" x1="266" y1="267" x2="236" y2="267"/>
<line fill="none" stroke="#7774CF" stroke-width="2" stroke-miterlimit="10" x1="266" y1="261" x2="236" y2="261"/>
<polyline fill="none" stroke="#7774CF" stroke-miterlimit="10" points="281.529,322.5 252.689,303.5 270.57,286.5 248.775,274.5 "/>
<path fill="none" stroke="#7774CF" stroke-miterlimit="10" d="M275,303.5"/>
<polyline fill="none" stroke="#7774CF" stroke-miterlimit="10" points="267,274.5 249.297,286.5 275,303.5 "/>
<line fill="none" stroke="#7774CF" stroke-miterlimit="10" x1="260.693" y1="238.5" x2="241" y2="223.5"/>
<path fill="none" stroke="#7774CF" stroke-miterlimit="10" d="M257,209.5"/>
<polyline fill="none" stroke="#7774CF" stroke-miterlimit="10" points="242.616,238.5 258.458,223.5 239,209.5 "/>
<line fill="none" stroke="#7774CF" stroke-miterlimit="10" x1="240.497" y1="223.5" x2="256.35" y2="209.5"/>
<path fill="none" stroke="#7774CF" stroke-miterlimit="10" d="M255,195.5"/>
<line fill="none" stroke="#7774CF" stroke-miterlimit="10" x1="255.625" y1="209.5" x2="237.209" y2="195.749"/>
<path fill="none" stroke="#7774CF" stroke-miterlimit="10" d="M253,181.5"/>
<polyline fill="none" stroke="#7774CF" stroke-miterlimit="10" points="239,209.5 253.35,195.874 237.209,181.719 "/>
<path fill="none" stroke="#7774CF" stroke-miterlimit="10" d="M251,169.5"/>
<polyline fill="none" stroke="#7774CF" stroke-miterlimit="10" points="237.209,195.749 251.408,181.5 236.844,170 "/>
<path fill="none" stroke="#7774CF" stroke-miterlimit="10" d="M250,156.5"/>
<polyline fill="none" stroke="#7774CF" stroke-miterlimit="10" points="237.209,181.719 250,170 236.5,156.906 "/>
<polyline fill="none" stroke="#7774CF" stroke-miterlimit="10" points="236.5,144.656 248.752,156.906 236.844,170 "/>
<line fill="none" stroke="#7774CF" stroke-miterlimit="10" x1="236.5" y1="156.906" x2="248" y2="144.5"/>
<line fill="none" stroke="#7774CF" stroke-miterlimit="10" x1="247.057" y1="133.655" x2="236.5" y2="144.188"/>
<line fill="none" stroke="#7774CF" stroke-miterlimit="10" x1="248" y1="144.5" x2="236.141" y2="133.875"/>
<line fill="none" stroke="#7774CF" stroke-miterlimit="10" x1="246.688" y1="124.812" x2="238" y2="133.5"/>
<line fill="none" stroke="#7774CF" stroke-miterlimit="10" x1="247.057" y1="133.655" x2="236.5" y2="124.812"/>
<line fill="none" stroke="#7774CF" stroke-miterlimit="10" x1="236.5" y1="124.812" x2="247.195" y2="116.5"/>
<path fill="none" stroke="#7774CF" stroke-miterlimit="10" d="M248,116.5"/>
<line fill="none" stroke="#7774CF" stroke-miterlimit="10" x1="246.588" y1="125" x2="237" y2="117"/>
<line fill="none" stroke="#7774CF" stroke-miterlimit="10" x1="237" y1="117" x2="246" y2="109"/>
<polyline fill="none" stroke="#7774CF" stroke-miterlimit="10" points="246,100.5 236.5,108.875 246.217,117 "/>
<line fill="none" stroke="#7774CF" stroke-miterlimit="10" x1="246.866" y1="108.249" x2="236.141" y2="100.875"/>
<line fill="none" stroke="#7774CF" stroke-miterlimit="10" x1="246" y1="100.5" x2="236.5" y2="95"/>
<line fill="none" stroke="#7774CF" stroke-miterlimit="10" x1="245.432" y1="95" x2="236.141" y2="100.875"/>
<polyline fill="none" stroke="#7774CF" stroke-miterlimit="10" points="245.427,94.844 236.141,89.5 244.938,89.5 236.5,95 "/>
<polyline fill="none" stroke="#7774CF" stroke-miterlimit="10" points="245.094,89.5 236.344,85.5 244.438,85.5 236.5,89.5 "/>
<line fill="none" stroke="#7774CF" stroke-miterlimit="10" x1="297.5" y1="355" x2="297.5" y2="364"/>
<line fill="none" stroke="#7774CF" stroke-miterlimit="10" x1="291.5" y1="355" x2="291.5" y2="364"/>
<line fill="none" stroke="#7774CF" stroke-miterlimit="10" x1="285.5" y1="355" x2="285.5" y2="364"/>
<line fill="none" stroke="#7774CF" stroke-miterlimit="10" x1="279.5" y1="355" x2="279.5" y2="364"/>
<line fill="none" stroke="#7774CF" stroke-miterlimit="10" x1="273.5" y1="355" x2="273.5" y2="364"/>
<line fill="none" stroke="#7774CF" stroke-miterlimit="10" x1="267.5" y1="355" x2="267.5" y2="364"/>
<line fill="none" stroke="#7774CF" stroke-miterlimit="10" x1="261.5" y1="355" x2="261.5" y2="364"/>
<line fill="none" stroke="#7774CF" stroke-miterlimit="10" x1="255.5" y1="355" x2="255.5" y2="364"/>
<line fill="none" stroke="#7774CF" stroke-miterlimit="10" x1="249.5" y1="355" x2="249.5" y2="364"/>
<line fill="none" stroke="#7774CF" stroke-miterlimit="10" x1="243.5" y1="355" x2="243.5" y2="364"/>
<line fill="none" stroke="#7774CF" stroke-width="2" stroke-miterlimit="10" x1="284.08" y1="379.29" x2="275.75" y2="363.75"/>
<path fill="none" stroke="#7774CF" stroke-miterlimit="10" d="M279.5,370.482"/>
<line fill="none" stroke="#7774CF" stroke-miterlimit="10" x1="303.927" y1="384.619" x2="279.5" y2="370.482"/>
<rect x="246.598" y="260.439" transform="matrix(1 -0.0034 0.0034 1 -0.899 0.8581)" fill="none" stroke="#7774CF" stroke-miterlimit="10" width="8" height="6"/>
<line fill="none" stroke="#7774CF" stroke-width="2" stroke-linecap="round" stroke-linejoin="round" stroke-miterlimit="10" x1="284.08" y1="379.29" x2="291.5" y2="393.394"/>
<path fill="none" stroke="#7774CF" stroke-width="2" stroke-linecap="round" stroke-linejoin="round" stroke-miterlimit="10" d="
	M284.08,379.165C271.859,370.435,254.229,365,236.5,365l0,0c-17.73,0-35.359,5.435-47.58,14.165l-7.42,14.229"/>
<line fill="none" stroke="#7774CF" stroke-width="2" stroke-miterlimit="10" x1="252" y1="304" x2="275" y2="304"/>
<line fill="none" stroke="#7774CF" stroke-width="2" stroke-miterlimit="10" x1="239" y1="210" x2="257" y2="210"/>
<line fill="none" stroke="#7774CF" stroke-width="2" stroke-miterlimit="10" x1="238" y1="196" x2="254" y2="196"/>
<line fill="none" stroke="#7774CF" stroke-width="2" stroke-miterlimit="10" x1="238" y1="182" x2="251" y2="182"/>
<line fill="none" stroke="#7774CF" stroke-width="2" stroke-miterlimit="10" x1="236" y1="170" x2="250" y2="170"/>
<line fill="none" stroke="#7774CF" stroke-width="2" stroke-miterlimit="10" x1="237" y1="157" x2="249" y2="157"/>
<line fill="none" stroke="#7774CF" stroke-width="2" stroke-miterlimit="10" x1="248" y1="145" x2="237" y2="145"/>
<line fill="none" stroke="#7774CF" stroke-width="2" stroke-miterlimit="10" x1="236" y1="134" x2="248" y2="134"/>
<line fill="none" stroke="#7774CF" stroke-width="2" stroke-miterlimit="10" x1="237" y1="125" x2="247" y2="125"/>
<line fill="none" stroke="#7774CF" stroke-width="2" stroke-miterlimit="10" x1="236" y1="117" x2="246" y2="117"/>
<line fill="none" stroke="#7774CF" stroke-width="2" stroke-miterlimit="10" x1="236" y1="109" x2="246" y2="109"/>
<line fill="none" stroke="#7774CF" stroke-width="2" stroke-miterlimit="10" x1="236" y1="101" x2="246" y2="101"/>
<line fill="none" stroke="#7774CF" stroke-width="2" stroke-miterlimit="10" x1="237" y1="95" x2="246" y2="95"/>
<line fill="none" stroke="#7774CF" stroke-miterlimit="10" x1="308.074" y1="370.5" x2="299.018" y2="385.963"/>
<path fill="none" stroke="#7774CF" stroke-miterlimit="10" d="M279.5,370.482"/>
<path fill="none" stroke="#7774CF" stroke-width="4" stroke-linecap="round" stroke-linejoin="round" stroke-miterlimit="10" d="
	M228.391,61.02l10.97-0.04l-13.021,0.21c0.1,0,0.16-0.41,0.189-1.08C226.83,60.65,227.55,61.03,228.391,61.02z"/>
<path fill="none" stroke="#7774CF" stroke-width="4" stroke-linecap="round" stroke-linejoin="round" stroke-miterlimit="10" d="
	M244.391,60.9l-1.529,0.02c0.869-0.15,1.521-1.4,1.521-1.4L244.391,60.9z"/>
<path fill="none" stroke="#7774CF" stroke-width="4" stroke-miterlimit="10" d="M245.664,60.962l-20.549,0.071
	c-1.194,0.004-1.723,0.902-1.719,2.006l0.014,4c0.004,1.104,0.539,1.998,1.732,1.994l20.549-0.071
	c1.191-0.004,1.723-0.902,1.719-2.006l-0.014-4C247.393,61.851,246.857,60.958,245.664,60.962z"/>
<path fill="none" stroke="#7774CF" stroke-width="4" stroke-linecap="round" stroke-linejoin="round" stroke-miterlimit="10" d="
	M244,59.51v0.01c0,0.68-0.459,1.25-1.33,1.4l-3.404,0.06l-10.923,0.04c-0.841,0.01-1.837-0.91-1.837-0.91l-0.098-8.15l8.869-4.26
	L244,52.19v0.04V59.51z"/>
<path fill="none" stroke="#7774CF" stroke-width="4" stroke-linecap="round" stroke-linejoin="round" stroke-miterlimit="10" d="
	M226.42,51.96c0.08,2.22,0.21,6.23,0.109,8.15c-0.09-0.16-0.149-0.35-0.149-0.54l-0.021-7.28
	C226.359,52.17,226.38,52.06,226.42,51.96z"/>
<path fill="none" stroke="#7774CF" stroke-width="4" stroke-linecap="round" stroke-linejoin="round" stroke-miterlimit="10" d="
	M242.859,60.92c-0.149,0.04-0.312,0.05-0.471,0.05l-3.029,0.01L242.859,60.92z"/>
<line fill="none" stroke="#7774CF" stroke-linecap="round" stroke-linejoin="round" stroke-miterlimit="10" x1="236.5" y1="365" x2="236.5" y2="377"/>
<line fill="none" stroke="#7774CF" stroke-linecap="round" stroke-linejoin="round" stroke-miterlimit="10" x1="229.329" y1="365.26" x2="230.337" y2="377.218"/>
<line fill="none" stroke="#7774CF" stroke-linecap="round" stroke-linejoin="round" stroke-miterlimit="10" x1="222.205" y1="366.121" x2="224.213" y2="377.952"/>
<line fill="none" stroke="#7774CF" stroke-linecap="round" stroke-linejoin="round" stroke-miterlimit="10" x1="215.179" y1="367.577" x2="218.173" y2="379.197"/>
<line fill="none" stroke="#7774CF" stroke-linecap="round" stroke-linejoin="round" stroke-miterlimit="10" x1="208.299" y1="369.619" x2="212.259" y2="380.946"/>
<line fill="none" stroke="#7774CF" stroke-linecap="round" stroke-linejoin="round" stroke-miterlimit="10" x1="201.615" y1="372.23" x2="206.513" y2="383.186"/>
<line fill="none" stroke="#7774CF" stroke-linecap="round" stroke-linejoin="round" stroke-miterlimit="10" x1="195.175" y1="375.395" x2="200.268" y2="384.619"/>
<line fill="none" stroke="#7774CF" stroke-linecap="round" stroke-linejoin="round" stroke-miterlimit="10" x1="189.022" y1="379.088" x2="194.629" y2="387.488"/>
<line fill="none" stroke="#7774CF" stroke-linecap="round" stroke-linejoin="round" stroke-miterlimit="10" x1="185.34" y1="385.97" x2="189.218" y2="390.838"/>
<line fill="none" stroke="#7774CF" stroke-linecap="round" stroke-linejoin="round" stroke-miterlimit="10" x1="182.064" y1="392.521" x2="184.096" y2="394.673"/>
<line fill="none" stroke="#7774CF" stroke-linecap="round" stroke-linejoin="round" stroke-miterlimit="10" x1="242.671" y1="365.26" x2="241.663" y2="377.218"/>
<line fill="none" stroke="#7774CF" stroke-linecap="round" stroke-linejoin="round" stroke-miterlimit="10" x1="249.795" y1="366.121" x2="247.787" y2="377.952"/>
<line fill="none" stroke="#7774CF" stroke-linecap="round" stroke-linejoin="round" stroke-miterlimit="10" x1="256.82" y1="367.577" x2="253.827" y2="379.197"/>
<line fill="none" stroke="#7774CF" stroke-linecap="round" stroke-linejoin="round" stroke-miterlimit="10" x1="263.701" y1="369.619" x2="259.741" y2="380.946"/>
<line fill="none" stroke="#7774CF" stroke-linecap="round" stroke-linejoin="round" stroke-miterlimit="10" x1="270.385" y1="372.23" x2="266.057" y2="381.911"/>
<line fill="none" stroke="#7774CF" stroke-linecap="round" stroke-linejoin="round" stroke-miterlimit="10" x1="276.825" y1="375.395" x2="271.932" y2="384.257"/>
<line fill="none" stroke="#7774CF" stroke-linecap="round" stroke-linejoin="round" stroke-miterlimit="10" x1="282.979" y1="379.088" x2="277.643" y2="387.083"/>
<line fill="none" stroke="#7774CF" stroke-linecap="round" stroke-linejoin="round" stroke-miterlimit="10" x1="287.258" y1="385.219" x2="282.979" y2="390.593"/>
<line fill="none" stroke="#7774CF" stroke-linecap="round" stroke-linejoin="round" stroke-miterlimit="10" x1="290.754" y1="391.654" x2="288.283" y2="394.168"/>
<line fill="none" stroke="#7774CF" stroke-width="2" stroke-linecap="round" stroke-linejoin="round" stroke-miterlimit="10" x1="236" y1="73" x2="236" y2="79"/>
<line fill="none" stroke="#7774CF" stroke-width="2" stroke-linecap="round" stroke-linejoin="round" stroke-miterlimit="10" x1="241" y1="73" x2="241" y2="79"/>
<line fill="none" stroke="#7774CF" stroke-width="2" stroke-linecap="round" stroke-linejoin="round" stroke-miterlimit="10" x1="246" y1="73" x2="246" y2="78"/>
<line fill="none" stroke="#7774CF" stroke-width="2" stroke-linecap="round" stroke-linejoin="round" stroke-miterlimit="10" x1="231" y1="73" x2="231" y2="79"/>
<line fill="none" stroke="#7774CF" stroke-width="2" stroke-linecap="round" stroke-linejoin="round" stroke-miterlimit="10" x1="226" y1="73" x2="226" y2="79"/>
<line fill="none" stroke="#7774CF" stroke-linecap="round" stroke-linejoin="round" stroke-miterlimit="10" x1="226" y1="82.5" x2="245" y2="82.5"/>
<line fill="none" stroke="#7774CF" stroke-linecap="round" stroke-linejoin="round" stroke-miterlimit="10" x1="227" y1="85.5" x2="234.334" y2="82.5"/>
<polyline fill="none" stroke="#7774CF" stroke-linecap="round" stroke-linejoin="round" stroke-miterlimit="10" points="235,85.5 
	227.416,82.5 234.334,79.75 "/>
<line fill="none" stroke="#7774CF" stroke-linecap="round" stroke-linejoin="round" stroke-miterlimit="10" x1="234.666" y1="82.625" x2="227.416" y2="79.75"/>
<line fill="none" stroke="#7774CF" stroke-linecap="round" stroke-linejoin="round" stroke-miterlimit="10" x1="236.5" y1="82.5" x2="243.417" y2="79.75"/>
<line fill="none" stroke="#7774CF" stroke-linecap="round" stroke-linejoin="round" stroke-miterlimit="10" x1="243.417" y1="82.5" x2="237" y2="79.75"/>
<line fill="none" stroke="#7774CF" stroke-linecap="round" stroke-linejoin="round" stroke-miterlimit="10" x1="236.344" y1="85.708" x2="243.209" y2="82.625"/>
<line fill="none" stroke="#7774CF" stroke-linecap="round" stroke-linejoin="round" stroke-miterlimit="10" x1="243.417" y1="85.5" x2="237" y2="82.301"/>
<line fill="none" stroke="#7774CF" stroke-width="2" stroke-miterlimit="10" x1="279.5" y1="370.482" x2="308.074" y2="370.5"/>
<line fill="none" stroke="#7774CF" stroke-miterlimit="10" x1="166.745" y1="370.457" x2="173.273" y2="385.379"/>
<path fill="none" stroke="#6967AA" stroke-width="5" stroke-linecap="round" stroke-linejoin="round" stroke-miterlimit="10" d="
	M202.604,436.222"/>
<path fill="none" stroke="#7774CF" stroke-width="5" stroke-linecap="round" stroke-linejoin="round" stroke-miterlimit="10" d="
	M97.666,317.333C122,314.75,133.25,337,125.334,355.5c17.916-4.75,34.166,7.282,31,26.5c13.916-2.25,33.416,8.5,31.416,36.25"/>
<line fill="none" stroke="#7774CF" stroke-width="2" stroke-linecap="round" stroke-linejoin="round" stroke-miterlimit="10" x1="366.665" y1="105.307" x2="381.665" y2="105.224"/>
<path fill="none" stroke="#7774CF" stroke-width="2" stroke-linecap="round" stroke-linejoin="round" stroke-miterlimit="10" d="
	M277,105.281l9.781,0.026c0-8.773,8.406-15.928,18.773-15.928c2.56,0,4.996,0.413,7.226,1.199c1.294-3.046,4.733-5.23,8.772-5.23
	c2.68,0,5.094,0.948,6.793,2.481c3.047-1.993,6.731-3.156,10.707-3.156c7.854,0,14.586,4.532,17.459,10.998
	c0.031,0.073,0.064,0.146,0.094,0.22c5.427,0.02,10.06,4.046,10.06,9.279"/>
<path fill="none" stroke="#7774CF" stroke-width="2" stroke-linecap="round" stroke-linejoin="round" stroke-miterlimit="10" d="
	M48,202.167l20.372,0.154c0-12.148,11.641-22.055,25.997-22.055c3.543,0,6.922,0.571,10.005,1.66
	c1.792-4.218,6.555-7.243,12.149-7.243c3.71,0,7.051,1.313,9.406,3.436c4.217-2.76,9.323-4.37,14.824-4.37
	c10.875,0,20.197,6.276,24.176,15.229c0.048,0.101,0.094,0.203,0.131,0.304c7.514,0.027,13.93,5.603,13.93,12.849l12.479,0.074"/>
<path fill="none" stroke="#7774CF" stroke-width="5" stroke-linecap="round" stroke-linejoin="round" stroke-miterlimit="10" d="
	M285.511,418.5c-2-28,17.5-38.625,31.417-36.375c-3.167-19.218,13.083-31.312,31-26.562c-7.917-18.5,3.333-40.778,27.666-38.195
	c1.986-38.333,46.739-48.194,63.739-36.684c4-11.006,15-11.367,20.795-6.897c2.09-12.544,3.171-25.435,3.125-38.576
	c-0.44-126.063-102.987-227.9-229.05-227.46C108.144,8.189,6.308,110.737,6.748,236.798c0.041,11.923,1.035,23.726,2.895,35.321
	c10.691-8.674,29.024-4.02,32.691,8.214c17.333-16.79,62-3.333,55.332,37C122,314.75,133.25,337,125.334,355.5
	c17.916-4.75,34.166,7.407,31,26.625c13.916-2.25,33.416,8.375,31.416,36.375H285.511z"/>
</svg>
